<?xml version="1.0" encoding="UTF-8"?><svg id="Layer_0_Image" data-name="Layer 0 Image" xmlns="http://www.w3.org/2000/svg" viewBox="0 0 800 600" x="0px" y="0px" width="800px" height="600px" version="1.1" xmlns:xlink="http://www.w3.org/1999/xlink"><title>1</title><path d="M458.869,388.3c52.7,1.883,97.015-18.08,136.735-51.076,45.217-37.563,80.29-83.455,111.011-133.038,9.3-15.015,18.223-30.277,27.882-45.057,2.593-3.968,6.825-8.009,11.127-9.32,2.967-.905,7.349,2.828,11.1,4.489-1.155,2.208-2.206,4.479-3.487,6.612-3.446,5.742-7.5,11.181-10.4,17.178-9.464,19.507-18.2,39.373-27.857,58.778a431.153,431.153,0,0,1-21.426,38.271c-4.931,7.8-12.022,14.191-17.461,21.709-8.62,11.916-15.611,25.168-25.2,36.188-14.934,17.155-30.153,34.51-47.6,48.938-38.573,31.9-83.089,47.485-133.971,44.332-23.675-1.467-47.147-2-69.528-11.164-2.444-1-7.019.583-9.409,2.478-24.07,19.074-51.728,29.09-81.965,30.969-22.627,1.406-45.811,3.2-67.975-.2-18.6-2.856-36.763-11.617-53.844-20.279-15.189-7.7-29.282-18.032-42.68-28.683-19.088-15.174-32.675-35.012-41.665-57.627-1.291-3.249.933-9.255,3.51-12.319,2.865-3.407,6.979-1.772,11.668.328,14.668,6.57,20.622,20.276,28.607,32.125,15.127,22.447,36.861,35.7,61.737,42.751,42.439,12.032,84.661,6.973,125.634-7.84,22.136-8,21.917-8.912,5.788-24.8-21.228-20.914-32.974-45.878-31.348-75.959,1.888-34.915,30.9-59.459,65.838-56.891,10.965.806,18.434,7.521,25.6,14.428,16.294,15.7,25.4,35.286,28.573,57.512,3.286,22.988,3.9,45.8-7.043,67.412-2.641,5.219-.1,7.5,5.414,7.757C437.114,386.8,447.989,387.612,458.869,388.3Zm-62.437-75.807c-1.837-9.785-3.488-19.609-5.578-29.34-1.291-6.012-5.146-7.6-11.267-6.27-19.176,4.165-33.368,21.061-35.07,41.319-1.856,22.08,10.93,35.7,26.7,47.586,1.233.929,5.8-.681,7.4-2.418C391.768,349.066,395.572,331.509,396.432,312.491ZM522.9,389.885l1,1.861,39.591-16.805q-.609-1.419-1.22-2.839ZM336.93,407.072l1.079,2.475,23.805-13.006q-.75-1.368-1.5-2.737Q348.622,400.439,336.93,407.072Z"/><path d="M43.278,336.982c1.692-19.7,4.236-40.9,4.945-62.159.247-7.43-2.064-14.446,6.189-18.648,1.7-.865,4.179-2.238,5.436-1.621,21.284,10.457,45.047,10.724,67.376,16.739,14.957,4.029,28.885,10.556,38.351,23.589,1.888,2.6,1.755,6.667,2.554,10.057-3.362.675-6.933,2.443-10.054,1.849-22.691-4.32-45.34-8.9-67.892-13.89-7.075-1.567-8.357,1.165-9.194,7.371-1.932,14.317-5,28.478-7.106,42.777-.9,6.109-.561,12.4-.718,18.615-.013.52.8,1.116.706,1.568-.967,4.658-1.42,12.941-3.2,13.244a26.4,26.4,0,0,1-16.189-2.78C40.136,365.715,44.56,351.112,43.278,336.982Z"/></svg>