<?xml version="1.0" encoding="UTF-8"?><svg id="Layer_0_Image" data-name="Layer 0 Image" xmlns="http://www.w3.org/2000/svg" viewBox="0 0 800 600" x="0px" y="0px" width="800px" height="600px" version="1.1" xmlns:xlink="http://www.w3.org/1999/xlink"><title>1</title><path d="M129.233,225.46c-.246-.981-.411-1.637-.667-2.657l-1.549,1.154c-3.607-2.008-7.226-4.148-10.958-6.069-5-2.575-10.124-4.779-14.924-7.916-4.072-2.663-9.226-4.192-12.641-7.664-3.228-3.28-8.415-2.9-10.887-6.935-4.928-.659-7.356-5.3-11.5-7.268-1.217-.577-2.039-1.632-3.684-1.727s-1.636-.493-3.493-3.988c-.509-.071-1.174-.185-1.844-.248-.478-.044-1.3.143-1.394-.047-2.19-4.642-8.31-3.48-10.922-7.439-.247-.375-.406-1.093-.675-1.129-7.643-1.011-12.234-7.67-19-10.223-2.536-.956-3.559-3.6-5.942-4.633-1.022-.443-1.961-1.078-3.061-1.694a16.567,16.567,0,0,0-1.024-3.726,23.393,23.393,0,0,0-3.026-3.6c3.894-1.724,7.54-.361,10.844-2.127l-8.21-.384-.509-1.888c9.213-2.952,9.34-3.263,20.148,1.163,7.647,3.131,15.885,5.18,22.436,10.67,6.281,1.417,11.267,5.512,16.878,8.3,7.65,3.8,14.907,8.381,22.477,12.353,9.526,5,19.165,9.783,28.815,14.54,9.034,4.454,18.346,8.225,27.741,11.894,6.2,2.421,12.33,5.265,18.542,7.789s12.513,4.842,18.792,7.2c4.606,1.733,9.125,4.022,13.9,4.907,5.051.936,8.831,4.5,13.778,5.406,3.119.57,5.917,2.641,9.314,2.039.47-.083,1.107-.211,1.429.018,5.339,3.793,11.89,4.021,17.823,6.046,6.166,2.1,12.477,3.8,18.768,5.509,3.477.946,7.051,1.432,10.424,2.885,3.98,1.713,8.45,1.469,12.6,2.86a131.7,131.7,0,0,0,15.74,3.951q7.7,1.56,15.321,3.461c9.885,2.47,20.081,3.592,29.754,6.994,2.56.9,5.318.333,8.119,1.42,3.774,1.465,8.785.15,12.212,1.99,3.783,2.031,8.173-.636,11.293,2.609,7.5-.214,14.541,2.906,22.024,2.976,2.223.02,4.434.916,6.658,1.375,2.457.507,4.912,1.028,7.385,1.441,2.246.377,4.848-.909,6.654,1.469,3.8-.507,7.368,1.078,11.021,1.3,4.685.29,9.105,2.674,13.906,1.6,2.651,2.955,6.988-.037,9.78,2.769.489.49,1.85.105,2.808.136,2.773.093,5.441-.1,8.182,1.309,2.345,1.2,5.359-.571,8.178,1.39,1.621,1.128,4.669.2,6.973.2l2.695,2.695c3.962-2.694,7.239-.9,10.435,1.594,2.044-2.452,5.321-2.066,7.182-1.041,2.4,1.32,4.57,1.022,6.832,1.062,6.609.119,13.017,2.28,19.736,1.653,1.726-.161,3.63,1.585,5.4,2.43a19.312,19.312,0,0,1,2.949-1.105c2.969-.624,5.8.907,9,.21,2.653-.577,5.954.491,8.585,1.677,1.449.653,1.943-.338,2.632-.276,3.911.354,8.021-1.595,11.8,1.163.949.691,2.828.1,4.28.1,10.4,0,20.808-.032,31.211.025,2.346.013,4.849-.115,6.99.643,2.2.778,3.52-1.763,5.629-.731,1.363.668,3.021.732,4.8,1.123a31.688,31.688,0,0,1,5.58-1.008c7.74-.128,15.513-.482,23.218.057,9.591.671,18.943-1.389,28.427-1.83,6.838-.317,13.56-3.124,20.868-4.955l5.574,2.043,1.4-1.239,4.179,5.03-11.6,2.957L704.32,301H711.8l2.835,2.834-5.252,3.915,3.186,1.236c.881,4.02-1.752,6.433-4.155,8.92.457.51.908,1.015,1.021,1.142l-5.45,5.38c-1.923-.46-4.309-2.971-7.168-.765.455.514.911,1.026,1.775,2l-8.683-1.406-.27,1.107,4.444,1.068-5.18,2.692c-.409-.846-.763-1.575-1.444-2.98l-5.116-.3c.611,1.442,1.056,2.493,1.871,4.415-1.771,0-2.906.08-4.027-.013-8.1-.674-15.938,2.08-24.085,1.576-8.195-.506-16.457.114-24.663-.291-1.749-.087-2.814,2.63-4.866.64-.635-.614-3.157.73-3.8.115-2.339-2.225-3.157,1.156-5.037,1.018-3.264-.239-6.1-1.868-9.556-1.736-10.388.4-20.8.272-31.2.076-3.92-.074-7.815-1.094-11.742-1.331-4.027-.243-8.079-.054-12.106-.344,5.925-1.653,19.9-1.465,26.215-.588q-1.623-.489-3.246-.975l.96-1.051c-4.343,0-8.7-.24-13.024.057-6.195.425-12.06-2.58-18.274-1.509-2.177-1.93-5.326-.544-7.271-1.65-3.1-1.764-5.7,1.53-8.881-.352-2.4-1.421-5.958-.884-9.651-1.289l-1.98-1.612q.225-.48.451-.959l21.363,2.253,1.644-1.43-2.144-2.142c-.706.525-1.411,1.051-2.935,2.188l-1.181-4.774-1.5,1.271-2.157,1.07-.485-2.349-9.1-2.219c-.624,1.324-1.093,2.318-1.626,3.447l-7.4-2.695-2.552,1.52-4.123-5.223-1.638,1.638-3.915-1.913,2.179-2.111,1.739,1.518,4.2-1.923,1,2.884,6.285-2.132c2.826,2.259,6.5.385,10.169,1.2l2.83,2.678c2.017-2.637,4.966-.763,7.743-1.708.04-.647.091-1.473.181-2.942-1.033.8-1.508,1.174-2.373,1.849l-2.3-3.425-2.993,3.182-4.644-2.386c-2.117,2.085-4.194.9-6.562-.257-2-.973-4.347-1.215-6.689-1.819L509.18,301.3c-.868,2.1-1.26,3.052-1.848,4.478-2.117-.309-4.377-.637-6.636-.971-2.278-.338-4.979-.037-6.73-1.183-2.351-1.539-3.814,2.026-6.209.139-1.606-1.265-4.376-1.052-6.6-1.5-1.017,1.49-1.779,2.606-3.207,4.7l6.814-.616,1.347,1.243-1.209,1.558,1.141,1.39c-.251.26-.55.814-.808.8-2.117-.151-4.223-.543-6.339-.6-2.274-.056-5.1,1.064-6.706.078-2.441-1.5-4.693-.331-7.131-1.055l-3.228-3.072-3.836,2.756c7.337,3.523,14.933,3.845,23.326,5.563a21.815,21.815,0,0,1-9.763.567c-1.683-.219-3.217-1.518-5.231-1.365-1.6.122-3.869-1.145-4.749-.437-2.245,1.8-2.858-.993-4.329-.958a39.948,39.948,0,0,1-5.8-.037c-2.244-.277-4.426-1.039-6.668-1.368a39.7,39.7,0,0,1-6.007-1.222c-3.249-.992-7.023-.266-10.6.862l8.308.7c-6.726,2.937-12.06-1.026-17.556-.378-1.07-1.461-1.935-3.14-3.271-4.254-.673-.561-2.2-.1-4.869-.1l4.208,2.062c-.337.3-.669.828-.952.8-2.975-.268-5.928.572-8.934-1.255-2.216-1.346-5.247.151-8.184-1.228-3.394-1.594-7.715-1.1-11.554-1.893-3.774-.782-7.586-1.334-11.337-2.355-5.486-1.494-11.235-2.015-16.733-3.474s-11.394-.884-16.582-3.763c-2.615-1.451-5.719-.608-8.7-1.727-6.309-2.366-13.134-3.335-19.713-5.013-3.513-.9-6.829-2.408-10.577-2.544a10.028,10.028,0,0,1-9.3-5.8c-.512,1.052-.95,1.951-1.424,2.923l-1.547-1.375-.984.882c-2.679-.868-5.029-2.285-7.337-2.219-3.154.09-5.03-2.05-9.113-2.864-6.409,1.326-12.82-4.678-20.756-4.714-.194-1.29-.394-2.623-.784-5.224-1.141,1.992-1.824,3.183-2.01,3.507a44.671,44.671,0,0,1-16.4-6.2v-2.009a12.2,12.2,0,0,1-2.773,1.319,23.145,23.145,0,0,1-3.831.051l-2.376-2.737H216.7c-.373-1.051-.671-1.892-1.046-2.947l-2.512,1.6-4.154-3.745c-.172-1.6-.291-2.713-.506-4.712l-3.594,5.386c-4.34-1.713-8.286-4.254-13.139-5.123-4.281-.767-7.8-4.13-12.262-5.4-2.462-.7-4.451-3.3-7.58-2.652-1.5-2.422-4.164-2.641-6.5-3.587-2.92-1.184-6.759-.449-8.8-3.109-2.059-2.682-6.253-1.153-7.628-4.538-3-.338-5.412-2.437-8.118-3.081a17.5,17.5,0,0,1-7.835-4.029C132.275,225.581,130.816,225.749,129.233,225.46Zm310.409,60.372c-2.01.32-3.834,1.22-4.981.681-3.829-1.8-7.97-1.861-11.951-2.648-4.879-.965-10.126-.7-14.79-1.845-6.408-1.565-12.961-2.722-19.363-3.7-6.6-1.01-13.026-3.072-19.778-3.387-3.023-.141-5.968-1.823-8.972-2.727-.323-.1-.8.329-1.324.562.041.615.085,1.27.141,2.106,3.966.56,8.166.357,11.608,1.873,3.09,1.361,6.49.048,8.79,1.455,2.765,1.692,5.925,0,7.994,1.713,2.434,2.009,5.25-.189,7.428,1.437,2.608,1.948,5.811-.016,8.241,1.115,3.415,1.588,7.539,0,10.134,1.681,3.512,2.274,7.773-.79,10.614,2.541,3.846-.858,7.329,1.037,11.007,1.455,4.153.473,8.54.3,12.385,1.654,3.279,1.156,6.864.186,9.484,1.53,2.431,1.246,4.883.227,6.718,1.305,2.48,1.457,4.954,1.009,7.449,1.381,2.079.31,4.17.716,6.241,1.21,3.809.907,7.608,2.333,11.68,1.653.94-.156,2.461-.419,2.81.046,2.178,2.9,5.523.311,7.969,1.946,2.783,1.859,6.033.539,9.055.873.956.106,2.29-.39,2.837.089,2.05,1.8,4.756.6,6.634,1.544,2.589,1.3,4.585-.57,6.864-.187,3.412.572,6.846,1.025,10.279,1.464,2.931.375,5.875.658,9.17,1.022l.88-.749,4.372,2.251c3.027-1.5,5.668-1.624,8.294-.118,2.895,1.66,5.358-.224,7.877-1,2.9-.9,5.045,3.379,8.532.541,1.75-1.424,5.335-.592,8.4-.8a20.741,20.741,0,0,0-13.962-2.471c-4.736.734-9.12-2.716-13.81-.691-2.747-2.028-5.232-.547-7.808.725l-3.819-3.4-4.554,1.8c-2.119-1.482-4.334-2.521-6.569-.091l-2.77-2.77c-5.445-.271-11.126.608-16.611-1.428a27.189,27.189,0,0,0-7.36-1.462c-4.656-.349-9.265-.446-13.954-1.19-5-.8-10.022-2.788-15.327-1.864-.858.15-1.939-.98-2.973-1.548-.642.546-1.2,1.413-1.69,1.375q-5.837-.446-11.645-1.236c-.59-.079-1.085-.871-1.628-1.337-.489.446-1.009.919-1.8,1.634l-5.7-2.915c-.163.163-.311.447-.508.488-3.15.639-6.058-1.623-9.276-.8C440.221,286.711,439.558,285.76,439.642,285.832Z"/><path d="M776.186,277.444c-.286.649-1.175,1.71-.927,2.251,2.609,5.7,1.018,11.344-.107,16.968-.927,4.632-1.644,9.486-4.4,13.387-5.11,7.228-8.268,16.132-16.9,20.468-.249,4.6-6.883,3.909-7.094,8.546-4.8,2.331-7.713,6.887-11.8,10.053-2.568,1.987-5.065,4.044-7.485,6.213-.931.833-2.482.973-4.178,1.582l-2.307,4.71-6.67,4.237c-.068,1.23-.157,2.857-.253,4.591l-2.513.917c-1.386,2.8,1.569,2.047,2.455,2.991-1.737,3.785-4.833,6.185-8.479,8.315l-7.268-5.553V367.4c-1-1.049-1.983-2.084-3.022-3.174.6-4.593-.837-9.306,1.381-13.94,1.066-2.227,1.379-4.865,3.407-6.537,1.3-1.07.8-3.617,3.464-3.75.585-.03,1-2.764,1.556-4.227,1.112-2.91,3.652-4.755,5.628-6.935A141.777,141.777,0,0,1,725.569,314c5.359-4.381,10.133-9.553,16.382-12.866,1.827-.968,3.185-2.8,4.814-4.172,1.576-1.326,3.223-2.568,5.281-4.2l-8.1-3.492-.959,2.6c-6.322-.586-11.856-4.281-18.4-5.529V283.1l-14.333-4.462c-1.946-.64-3.747,2.266-6.258.034l2.946-1.375c-3.476.638-6.458-5.281-10.157-.127-4.584-5.367-12.929-2.828-16.786-9.195L678.42,269.4c-3.633-1.378-7.3-3.273-11.189-4.1-4.042-.864-5.319-5.111-10.2-6.172a18.854,18.854,0,0,1-14.9-4.481c-.682-2.076-1.312-3.99-1.983-6.033l1.224-2.068-2.676-2.676,5.8-2.913-2.833-2.834,4.094-2.4c2.935,3.559,7.526.95,11.564,2.767,5.676,2.552,12.273,2.979,18.372,4.687,7.124,2,14.129,4.415,21.2,6.6,7.525,2.329,15.03,4.683,22.713,6.523,6.3,1.509,12.194,4.553,18.627,5.784,2.168,2.66,6.095.163,8.265,2.819,5.466-.56,9.95,3.341,15.308,3.377,1.07.008,2.113.76,3.207.958C769.9,270.123,774.49,271.391,776.186,277.444Z"/></svg>