<?xml version="1.0" encoding="UTF-8"?><svg id="Layer_0_Image" data-name="Layer 0 Image" xmlns="http://www.w3.org/2000/svg" viewBox="0 0 800 600" x="0px" y="0px" width="800px" height="600px" version="1.1" xmlns:xlink="http://www.w3.org/1999/xlink"><title>1</title><path d="M394.54,399.449c14.294.709,28-3.227,41.7-6.706,59.153-15.03,108.985-46.51,154.148-86.679,30.168-26.832,57.481-56.278,83.812-86.744,2.4-2.781,4.726-5.684,8.345-6.954,4.066-1.428,6.936-1.1,5.025,4.315-.471,1.334-2.323,2.583.21,3.361,8.736,2.682,6.368,9.045,4.819,14.833-2.907,10.864-10.178,19.425-16.4,28.336-17.43,24.97-35.819,49.306-57.241,71.016-19.888,20.155-42.475,37.2-65.526,53.606-14.671,10.441-29.742,20.861-47.013,25.58-11.472,3.134-20.74,10.143-31.938,13.331-21.46,6.111-42.9,11.968-65.329,13.212-18.463,1.024-35.9-2.635-51.955-11.823a16.632,16.632,0,0,0-15.648-1.027c-14.481,5.96-29.2,11.47-43.875,16.743-23.87,8.578-48.992,13.328-74.135,17.081-40.1,5.986-80.257,7.875-120.366-.08-23.575-4.675-46.515-10.814-64.215-28.685-4.66-4.705-8.119-9.9-7.9-16.891.092-3.012,1.047-5.293,4-6.552,3.487-1.489,3.794.982,5.4,3.244,11.017,15.5,28.585,17.536,45.275,20.972,45.994,9.472,91.758,5.135,137.408-2.849a492.41,492.41,0,0,0,101.8-29c2.607-1.065,6.207-.973,4.033-5.9-7.57-17.162-6.349-34.713-.188-51.8,9.508-26.364,25-47.739,53.461-55.905,15.3-4.388,25.5.583,34.469,13.612,22.862,33.2,10.314,68.942-15.756,90.341q-3.5,2.871-7,5.737Q394.243,398.313,394.54,399.449Zm11.359-71.86c.115-8.775-5.544-7.673-10.741-6.925-17.572,2.528-26.605,16.07-35.117,29.1-6.2,9.5-11.456,20.152-11.6,32.147-.056,4.573,1.162,8.21,7.081,4.943,16.158-8.916,30.687-19.758,41.17-35.232C401.682,344.252,405.148,336.169,405.9,327.589Zm55.049,68.474c-22.193,5.19-44,11.087-66.5,13.762C418.027,411.765,439.745,404.577,460.948,396.063Zm-129.672,9.658L275.39,425.746A174.866,174.866,0,0,0,331.276,405.721Z"/><path d="M726.027,245.608c.42-19.009,4.074-37.613,7-56.311.437-2.794,2.425-5.841-1.085-8.282-3.374-2.346-5.974.05-8.261,1.553-12.452,8.181-26.61,12.251-40.173,17.867-8.573,3.55-16.536,8.751-25.451,12.129-13.73,5.2-27.084,11.435-40.438,17.577-6.764,3.112-14.69,2.918-20.577,8.846-5.775,5.816-12.031,4.065-19.141-5.625-3.627-4.942-5.113-11.534,1.061-16.227a98.42,98.42,0,0,1,16.268-10.175c37.882-18.446,75.913-36.587,113.817-54.987,8.511-4.132,16.746-8.84,25.054-13.381,15.1-8.253,21.5-6.04,29.568,9.251,6.263,11.865,6.766,23.578,2.552,36.223-8.109,24.333-15.524,48.9-18.92,74.442-.68,5.118-.641,10.328-1.118,15.478-.553,5.964-3.352,7.49-8.475,3.981C726.352,270.188,725.4,267.572,726.027,245.608Zm-37.008-75.221c17.9-5.637,34.645-13.555,49.685-24.822Z"/></svg>