<svg xmlns="http://www.w3.org/2000/svg" xmlns:xlink="http://www.w3.org/1999/xlink" viewBox="0 0 400 300"><defs><linearGradient id="linear-gradient" x1="296.16" y1="182.32" x2="281.45" y2="192.45" gradientUnits="userSpaceOnUse"><stop offset="0" stop-color="gray"/><stop offset="1" stop-color="#fff"/></linearGradient><linearGradient id="linear-gradient-2" x1="221.82" y1="208.11" x2="200.88" y2="235.59" xlink:href="#linear-gradient"/><linearGradient id="linear-gradient-3" x1="247.25" y1="166.65" x2="246.78" y2="167.41" gradientTransform="matrix(-1, 0, 0, 1, 369.99, 0)" gradientUnits="userSpaceOnUse"><stop offset="0" stop-color="#fff" stop-opacity="0"/><stop offset="1" stop-color="#d4ffff"/></linearGradient><linearGradient id="linear-gradient-4" x1="247.25" y1="173.14" x2="246.78" y2="173.9" xlink:href="#linear-gradient-3"/><linearGradient id="linear-gradient-5" x1="247.25" y1="180.12" x2="246.78" y2="180.88" xlink:href="#linear-gradient-3"/><linearGradient id="linear-gradient-6" x1="287.57" y1="174.74" x2="276.2" y2="193.07" xlink:href="#linear-gradient-3"/><linearGradient id="linear-gradient-7" x1="179.91" y1="65.77" x2="179.27" y2="66.79" xlink:href="#linear-gradient-3"/><clipPath id="clip-path"><line x1="221.2" y1="70" x2="152.99" y2="109.58" fill="none"/></clipPath><clipPath id="clip-path-2"><line x1="221.2" y1="90.6" x2="152.99" y2="130.17" fill="none"/></clipPath><clipPath id="clip-path-3"><line x1="221.2" y1="109.45" x2="152.99" y2="149.02" fill="none"/></clipPath><clipPath id="clip-path-4"><line x1="221.2" y1="70" x2="152.99" y2="109.58" fill="#ffc963"/></clipPath><clipPath id="clip-path-5"><line x1="221.2" y1="90.6" x2="152.99" y2="130.17" fill="#ff666d"/></clipPath><linearGradient id="linear-gradient-8" x1="276.98" y1="153.24" x2="265.62" y2="171.56" xlink:href="#linear-gradient-3"/></defs><title>a</title><g style="isolation:isolate"><g id="Layer_2" data-name="Layer 2"><polygon points="73.39 218.44 176.21 277.56 342.83 181.48 239.39 124.58 73.39 218.44" fill="#a67593"/><path d="M290.08,180c-7.19,4.2-11.62,5.8-22.69,12.12a96.52,96.52,0,0,1,12.44,9l24.87-14.6C302.77,185.45,299,184.41,290.08,180Z" fill="url(#linear-gradient)" style="mix-blend-mode:multiply"/><path d="M246.64,225c-5.92-3.23-19.55-11-34.35-18.35C197.56,215.2,187,221,164.38,233.91c17.15,10.42,33.7,22.54,35.62,23.67l37.8-21.9C238,234.25,246.25,226.35,246.64,225Z" fill="url(#linear-gradient-2)" style="mix-blend-mode:multiply"/><polygon points="239.39 13.43 239.39 124.58 73.39 218.44 73.39 112.53 239.39 13.43" fill="#333856"/><ellipse cx="120" cy="132.94" rx="27.98" ry="14.66" transform="translate(-27.32 234.76) rotate(-82.58)" fill="#e6e6e6" stroke="#fbb03b" stroke-miterlimit="10" stroke-width="3"/><path d="M120,133.33V107.15s-8.52,2.56-12.78,18.57Z" fill="#f65e34"/><path d="M120,133.33l-7.17,25.4s-10.84-7.72-5.61-33Z" fill="#ff666d"/><line x1="137.73" y1="158.5" x2="107.86" y2="174.99" fill="url(#linear-gradient-3)"/><path d="M137.35,157.85l-29.88,16.5c-.85.47-.09,1.76.76,1.3l29.88-16.5c.85-.47.09-1.76-.76-1.3Z" fill="#f2f2f2"/><line x1="137.73" y1="164.98" x2="107.86" y2="181.48" fill="url(#linear-gradient-4)"/><path d="M137.35,164.34l-29.88,16.5c-.85.47-.09,1.76.76,1.3l29.88-16.5c.85-.47.09-1.76-.76-1.3Z" fill="#f2f2f2"/><line x1="137.73" y1="171.97" x2="107.86" y2="188.46" fill="url(#linear-gradient-5)"/><path d="M137.35,171.32l-29.88,16.5c-.85.47-.09,1.76.76,1.3l29.88-16.5c.85-.47.09-1.76-.76-1.3Z" fill="#f2f2f2"/><path d="M87.06,156.46v41.07a3.24,3.24,0,0,1-2.23,3.08h0a3.24,3.24,0,0,1-4.26-3.08V156.46a3.24,3.24,0,0,1,2.1-3h0A3.24,3.24,0,0,1,87.06,156.46Z" stroke="#f2f2f2" stroke-miterlimit="10" stroke-width="0.5" fill="url(#linear-gradient-6)"/><line x1="224.27" y1="46.1" x2="156.05" y2="85.68" fill="url(#linear-gradient-7)"/><path d="M223.89,45.46,155.67,85a.75.75,0,0,0,.76,1.3l68.22-39.58a.75.75,0,0,0-.76-1.3Z" fill="#f2f2f2"/><path d="M287.88,172.75l2.67,12.45a2.8,2.8,0,0,0,1.5,1.93c1.55.76,4.75,1.55,10.84.45a2.82,2.82,0,0,0,2.25-2.17l2.74-12.66" fill="#f65e34"/><ellipse cx="297.88" cy="172.75" rx="10" ry="4.1" fill="#124577"/><path d="M292.06,163.53a3.21,3.21,0,0,1-1.16-1.07l-5.63-8.71c-2.61-4-3.56-33,3.28-33.33,5.43-.29,11,12.4,13,16.1a60.25,60.25,0,0,1,4.89,11c1.64,5.71-2.08,10.7-5.59,15.23C299.11,164.87,294.32,164.78,292.06,163.53Z" fill="#66c652"/><path d="M295.41,169.24q1.14.79,2.23,1.66a106.27,106.27,0,0,0-5.28-38,1.16,1.16,0,0,0-2.21.69A104,104,0,0,1,295.41,169.24Z" fill="#124577"/><path d="M303.36,161.2a2,2,0,0,1-.14-1l.77-6.57c.36-3,11.65-17.66,15.16-15.07,2.79,2.06.38,10.57-.17,13.19a38.45,38.45,0,0,1-2,7.38c-1.51,3.47-5.37,4.42-8.94,5.22C306.29,164.72,304,162.73,303.36,161.2Z" fill="#49b230"/><path d="M313.75,146.56a127,127,0,0,0-12,27,14.71,14.71,0,0,1,1.65,1.06,125.2,125.2,0,0,1,12-27.16C316,146.41,314.37,145.51,313.75,146.56Z" fill="#124577"/><path d="M227.19,192.68l-8.62,39.09a1.5,1.5,0,0,0,2.93.65l8.62-39.09A1.5,1.5,0,0,0,227.19,192.68Z" fill="#333856"/><path d="M232.15,187.53l11.63,38.3a1.5,1.5,0,0,0,2.87-.87L235,186.66A1.5,1.5,0,0,0,232.15,187.53Z" fill="#333856"/><path d="M231.33,194.49l3.47,39.88a1.5,1.5,0,0,0,3-.26l-3.47-39.88A1.5,1.5,0,0,0,231.33,194.49Z" fill="#333856"/><path d="M194.85,158.93c.4.52,10.62,20.5,10.62,20.5l17.94-8.25-10.84-21.72Z" fill="#fff"/><path d="M211.77,161.11c-2,1-4.17,1.78-6.25,2.65-.58.24-.33,1.21.27,1,2.16-.91,4.37-1.75,6.49-2.75C212.86,161.69,212.35,160.83,211.77,161.11Z" fill="#008074"/><path d="M210.64,155.38a104,104,0,0,0-11.94,5.21c-.57.29-.07,1.16.5.86a102,102,0,0,1,11.7-5.11C211.5,156.12,211.24,155.15,210.64,155.38Z" fill="#008074"/><path d="M210.7,158.37q-3.59,1.41-7.15,2.91c-.58.25-.33,1.21.27,1q3.56-1.5,7.15-2.91C211.56,159.1,211.3,158.14,210.7,158.37Z" fill="#008074"/><path d="M216.1,152l-4,6.83-.81,3.28,2.76-1.77,4.16-7.15A4.52,4.52,0,0,0,216.1,152Z" fill="#42210b"/><path d="M214.6,154.4a1.43,1.43,0,0,1,.08-.14.47.47,0,0,0-.27.06,15.75,15.75,0,0,0-2.18,1.23c-.59.47-.55,1.49-.66,2.17a.5.5,0,0,0,.76.53C213.08,157,214,155.75,214.6,154.4Z" fill="#ff666d"/><path d="M221.71,158.09l-.09,0a.43.43,0,0,0-.21-.22c-.53-.26-1-.54-1.55-.84a7.32,7.32,0,0,0-2.76-2.1c-.12.21-.25.41-.38.62a1.51,1.51,0,0,1-.35.38l-.65,1.31a.49.49,0,0,0,0,.09s-.06-.05-.11-.06a2.59,2.59,0,0,0-1.67.12c-.44.19-1,.55-1.07,1.07s.53.93,1,.94A2.07,2.07,0,0,0,215,159a.52.52,0,0,0,.07.14c1.24,1.57,2.92,1.69,4.78,1.82a.44.44,0,0,0,.3-.08,2.58,2.58,0,0,0,1.06-.61l0-.72a.51.51,0,0,0-.1-.29l0-.18a.52.52,0,0,0,0-.11l.09,0a.46.46,0,0,0,.26,0h0C222.08,159.17,222.35,158.21,221.71,158.09Z" fill="#ff666d"/><path d="M221.17,156.54a6.44,6.44,0,0,0-2,5l4.55,4.9,5.5-2.72.29-4.86Z" fill="#e87f18"/><path d="M209.46,209c0,.45.36,5.86-.24,6.49s-2.19,3.69-4.15,3.82-3.78-.26-4.15,1.84S212.05,224,212.05,224s1.21-4.81,1.73-4.67.5,5.31.5,5.31l2.13.46,2.13-1.42-.86-9.22-1.39-7.83" fill="#ffb164"/><path d="M199.36,214.16c.28,3.26.12,7.63-3,9.61-1.68,1.08-5.23.08-5.66,2.49-.38,2.1,11.11,2.88,11.11,2.88s1.24-4.8,1.76-4.66.46,5.31.46,5.31l2.13.47,2.14-1.41-.81-9.22-1.34-7.84" fill="#ffb164"/><path d="M208.48,169.32,205,168.14c-.73-.28-1-1.3-1.27-1.94a4,4,0,0,0-1.16-1.55.9.9,0,0,0-1.23.07c-.74.64-.23,1.47.21,2.09l.49.68-2.73-1.08a.94.94,0,0,0-.39-.16c-.91-.62-2,.82-1.18,1.59.17.17.36.31.54.46a.92.92,0,0,0-.39.76,2.75,2.75,0,0,0,1.29,2,1,1,0,0,0-.25,1.26,3.18,3.18,0,0,0,1.57,1.49,1.25,1.25,0,0,0,.79.08c1.67.26,3.39.25,5.05.6a.87.87,0,0,0,1-1.11.81.81,0,0,0,.64-.81.84.84,0,0,0,.39-.47.9.9,0,0,0,.47-1.33A.87.87,0,0,0,208.48,169.32Z" fill="#ff666d"/><path d="M219.67,204.86l1.69,9.23s-2.65,2.73-11.59,2.4,0-16.31,0-16.31" fill="#333856"/><path d="M206.81,177.78q5.71,1.25,11.52,1.93a.64.64,0,0,1,.44.24q.67-2,1.14-4.08c.18-.79,1.38-.45,1.21.33a43.6,43.6,0,0,1-3.15,9.11c-.34.73-1.42.09-1.08-.63.58-1.21,1.09-2.45,1.54-3.71h-.09q-6-.7-11.86-2C205.69,178.82,206,177.61,206.81,177.78Z" fill="#008074"/><path d="M217.1,186.61A16.81,16.81,0,0,0,221,191c.63.51-.26,1.39-.89.89a17.78,17.78,0,0,1-4.05-4.68A.63.63,0,0,1,217.1,186.61Z" fill="#008074"/><path d="M224.89,182.54s-10-8-16.59-8.94-10.07,6.24-9.6,11S215,192.07,215,192.07" fill="#333856"/><path d="M219.58,185.2c-1.29-1.2-18.21-9.1-24.17-5.49-6.35,3.84-5.81,13.37-7.11,19.68-1.12,5.45-2.07,10.95-2.91,16.45,0,0,17.39,5.26,25.24,3.23L209,201.5l22.54-12.31" fill="#333856"/><path d="M231.91,156.93c-.9.66-8.62,1.59-10.23,5.15s-2.11,23.12-2.11,23.12,2.67,5.71,10.7,3.25c2.38-.73,14.73-23.31,15.06-25.65C246.2,156.7,231.91,156.93,231.91,156.93Z" fill="#ffb164"/><path d="M247.15,196.6a20.21,20.21,0,0,0,1-2.86c1.89-7.43,3.14-35.3-9.39-34.17-13.75,1.24-9.1,35.67-23,34.62s-19.64,2.57-13.95,8C213.12,212.94,240.16,213.18,247.15,196.6Z" fill="#f65e34"/><path d="M228.36,146.48c-.23.52-3.17,8-1.32,10.34s8-.48,8.69-2.49,3.47-5.82,1.56-7.45S229.95,142.82,228.36,146.48Z" fill="#ff666d"/><path d="M224.89,177.7a6.51,6.51,0,0,1-6.56,3.27c-4.55-.63-14.51-6.26-14.51-6.26s-.36-5.47,3.66-6.2c0,0,8.91,2.28,9.76,2.51s4.45-8.95,4.45-8.95" fill="#ffb164"/><path d="M250.9,165.46c-1.09-5.79-5.7-11.81-7.61-16.68a26.34,26.34,0,0,0-1.33-3.88c-1.8-3.1-6.52-4.76-9.9-3.79a5.86,5.86,0,0,0-4.63,6.28l2.55.49a3.38,3.38,0,0,1,.94,1.62c.21,1.43-1.41,2-2.14,2.93-1.45,1.8-.75,4.91-1.74,7.09-2,4.4-4.78,9.67-.76,14a9.64,9.64,0,0,0,4.84,2.61c6.38,1.53,17.12,2.17,19.53-5.16A10.84,10.84,0,0,0,250.9,165.46Z" fill="#42210b"/><path d="M214,162.93a71.65,71.65,0,0,0-6.6,3c-.57.3-.07,1.16.5.86a69.08,69.08,0,0,1,6.36-2.91C214.87,163.66,214.61,162.69,214,162.93Z" fill="#008074"/><g clip-path="url(#clip-path)"><path d="M218.31,70.26V70H153v25.6c2.57-.23,5.33,1.3,5.33,4.62v7.24Z" fill="#fff"/><polygon points="218.31 70.26 158.31 107.46 158.31 107.5 218.31 70.3 218.31 70.26" fill="#fff"/><polygon points="218.31 70.3 158.31 107.5 158.31 107.53 218.31 70.33 218.31 70.3" fill="#feffff"/><polygon points="218.31 70.33 158.31 107.53 158.31 107.56 218.31 70.36 218.31 70.33" fill="#fdffff"/><polygon points="218.31 70.36 158.31 107.56 158.31 107.59 218.31 70.39 218.31 70.36" fill="#fcffff"/><polygon points="218.31 70.39 158.31 107.59 158.31 107.63 218.31 70.43 218.31 70.39" fill="#fbffff"/><polygon points="218.31 70.43 158.31 107.63 158.31 107.66 218.31 70.46 218.31 70.43" fill="#faffff"/><polygon points="218.31 70.46 158.31 107.66 158.31 107.69 218.31 70.49 218.31 70.46" fill="#f9ffff"/><polygon points="218.31 70.49 158.31 107.69 158.31 107.73 218.31 70.53 218.31 70.49" fill="#f8ffff"/><polygon points="218.31 70.53 158.31 107.73 158.31 107.76 218.31 70.56 218.31 70.53" fill="#f7ffff"/><polygon points="218.31 70.56 158.31 107.76 158.31 107.79 218.31 70.59 218.31 70.56" fill="#f6ffff"/><polygon points="218.31 70.59 158.31 107.79 158.31 107.82 218.31 70.63 218.31 70.59" fill="#f5ffff"/><polygon points="218.31 70.63 158.31 107.82 158.31 107.86 218.31 70.66 218.31 70.63" fill="#f4ffff"/><polygon points="218.31 70.66 158.31 107.86 158.31 107.89 218.31 70.69 218.31 70.66" fill="#f3ffff"/><polygon points="218.31 70.69 158.31 107.89 158.31 107.92 218.31 70.72 218.31 70.69" fill="#f2ffff"/><polygon points="218.31 70.72 158.31 107.92 158.31 107.96 218.31 70.76 218.31 70.72" fill="#f1ffff"/><polygon points="218.31 70.76 158.31 107.96 158.31 107.99 218.31 70.79 218.31 70.76" fill="azure"/><polygon points="218.31 70.79 158.31 107.99 158.31 108.02 218.31 70.82 218.31 70.79" fill="#efffff"/><polygon points="218.31 70.82 158.31 108.02 158.31 108.06 218.31 70.86 218.31 70.82" fill="#eff"/><polygon points="218.31 70.86 158.31 108.06 158.31 108.09 218.31 70.89 218.31 70.86" fill="#edffff"/><polygon points="218.31 70.89 158.31 108.09 158.31 108.12 218.31 70.92 218.31 70.89" fill="#ecffff"/><polygon points="218.31 70.92 158.31 108.12 158.31 108.15 218.31 70.95 218.31 70.92" fill="#ebffff"/><polygon points="218.31 70.95 158.31 108.15 158.31 108.19 218.31 70.99 218.31 70.95" fill="#eaffff"/><polygon points="218.31 70.99 158.31 108.19 158.31 108.22 218.31 71.02 218.31 70.99" fill="#e8ffff"/><polygon points="218.31 71.02 158.31 108.22 158.31 108.25 218.31 71.05 218.31 71.02" fill="#e7ffff"/><polygon points="218.31 71.05 158.31 108.25 158.31 108.28 218.31 71.08 218.31 71.05" fill="#e6ffff"/><polygon points="218.31 71.08 158.31 108.28 158.31 108.32 218.31 71.12 218.31 71.08" fill="#e5ffff"/><polygon points="218.31 71.12 158.31 108.32 158.31 108.35 218.31 71.15 218.31 71.12" fill="#e4ffff"/><polygon points="218.31 71.15 158.31 108.35 158.31 108.38 218.31 71.18 218.31 71.15" fill="#e3ffff"/><polygon points="218.31 71.18 158.31 108.38 158.31 108.42 218.31 71.22 218.31 71.18" fill="#e2ffff"/><polygon points="218.31 71.22 158.31 108.42 158.31 108.45 218.31 71.25 218.31 71.22" fill="#e1ffff"/><polygon points="218.31 71.25 158.31 108.45 158.31 108.48 218.31 71.28 218.31 71.25" fill="#e0ffff"/><polygon points="218.31 71.28 158.31 108.48 158.31 108.52 218.31 71.32 218.31 71.28" fill="#dfffff"/><polygon points="218.31 71.32 158.31 108.52 158.31 108.55 218.31 71.35 218.31 71.32" fill="#deffff"/><polygon points="218.31 71.35 158.31 108.55 158.31 108.58 218.31 71.38 218.31 71.35" fill="#dff"/><polygon points="218.31 71.38 158.31 108.58 158.31 108.61 218.31 71.41 218.31 71.38" fill="#dcffff"/><polygon points="218.31 71.41 158.31 108.61 158.31 108.65 218.31 71.45 218.31 71.41" fill="#dbffff"/><polygon points="218.31 71.45 158.31 108.65 158.31 108.68 218.31 71.48 218.31 71.45" fill="#daffff"/><polygon points="218.31 71.48 158.31 108.68 158.31 108.71 218.31 71.51 218.31 71.48" fill="#d9ffff"/><polygon points="218.31 71.51 158.31 108.71 158.31 108.75 218.31 71.55 218.31 71.51" fill="#d8ffff"/><polygon points="218.31 71.55 158.31 108.75 158.31 108.78 218.31 71.58 218.31 71.55" fill="#d7ffff"/><polygon points="218.31 71.58 158.31 108.78 158.31 108.81 218.31 71.61 218.31 71.58" fill="#d6ffff"/><polygon points="218.31 71.61 158.31 108.81 158.31 108.84 218.31 71.64 218.31 71.61" fill="#d5ffff"/><polygon points="218.31 71.64 158.31 108.84 158.31 108.88 218.31 71.68 218.31 71.64" fill="#d4ffff"/><polygon points="218.31 71.68 158.31 108.88 158.31 109.58 218.31 109.58 218.31 71.68" fill="#d4ffff"/></g><polygon points="218.31 67.06 158.31 101.86 158.31 111.11 218.31 76.31 218.31 67.06" fill="#f2f2f2"/><g clip-path="url(#clip-path-2)"><path d="M218.31,90.86V90.6H153v5c2.57-.23,5.33,1.3,5.33,4.62v27.83Z" fill="#fff"/><polygon points="218.31 90.86 158.31 128.06 158.31 128.09 218.31 90.89 218.31 90.86" fill="#fff"/><polygon points="218.31 90.89 158.31 128.09 158.31 128.12 218.31 90.92 218.31 90.89" fill="#feffff"/><polygon points="218.31 90.92 158.31 128.12 158.31 128.16 218.31 90.95 218.31 90.92" fill="#fdffff"/><polygon points="218.31 90.95 158.31 128.16 158.31 128.19 218.31 90.99 218.31 90.95" fill="#fcffff"/><polygon points="218.31 90.99 158.31 128.19 158.31 128.22 218.31 91.02 218.31 90.99" fill="#fbffff"/><polygon points="218.31 91.02 158.31 128.22 158.31 128.25 218.31 91.05 218.31 91.02" fill="#faffff"/><polygon points="218.31 91.05 158.31 128.25 158.31 128.29 218.31 91.09 218.31 91.05" fill="#f9ffff"/><polygon points="218.31 91.09 158.31 128.29 158.31 128.32 218.31 91.12 218.31 91.09" fill="#f8ffff"/><polygon points="218.31 91.12 158.31 128.32 158.31 128.35 218.31 91.15 218.31 91.12" fill="#f7ffff"/><polygon points="218.31 91.15 158.31 128.35 158.31 128.38 218.31 91.19 218.31 91.15" fill="#f6ffff"/><polygon points="218.31 91.19 158.31 128.38 158.31 128.42 218.31 91.22 218.31 91.19" fill="#f5ffff"/><polygon points="218.31 91.22 158.31 128.42 158.31 128.45 218.31 91.25 218.31 91.22" fill="#f4ffff"/><polygon points="218.31 91.25 158.31 128.45 158.31 128.48 218.31 91.28 218.31 91.25" fill="#f3ffff"/><polygon points="218.31 91.28 158.31 128.48 158.31 128.52 218.31 91.32 218.31 91.28" fill="#f2ffff"/><polygon points="218.31 91.32 158.31 128.52 158.31 128.55 218.31 91.35 218.31 91.32" fill="#f1ffff"/><polygon points="218.31 91.35 158.31 128.55 158.31 128.58 218.31 91.38 218.31 91.35" fill="azure"/><polygon points="218.31 91.38 158.31 128.58 158.31 128.62 218.31 91.42 218.31 91.38" fill="#efffff"/><polygon points="218.31 91.42 158.31 128.62 158.31 128.65 218.31 91.45 218.31 91.42" fill="#eff"/><polygon points="218.31 91.45 158.31 128.65 158.31 128.68 218.31 91.48 218.31 91.45" fill="#edffff"/><polygon points="218.31 91.48 158.31 128.68 158.31 128.71 218.31 91.51 218.31 91.48" fill="#ecffff"/><polygon points="218.31 91.51 158.31 128.71 158.31 128.75 218.31 91.55 218.31 91.51" fill="#ebffff"/><polygon points="218.31 91.55 158.31 128.75 158.31 128.78 218.31 91.58 218.31 91.55" fill="#eaffff"/><polygon points="218.31 91.58 158.31 128.78 158.31 128.81 218.31 91.61 218.31 91.58" fill="#e8ffff"/><polygon points="218.31 91.61 158.31 128.81 158.31 128.85 218.31 91.65 218.31 91.61" fill="#e7ffff"/><polygon points="218.31 91.65 158.31 128.85 158.31 128.88 218.31 91.68 218.31 91.65" fill="#e6ffff"/><polygon points="218.31 91.68 158.31 128.88 158.31 128.91 218.31 91.71 218.31 91.68" fill="#e5ffff"/><polygon points="218.31 91.71 158.31 128.91 158.31 128.94 218.31 91.75 218.31 91.71" fill="#e4ffff"/><polygon points="218.31 91.75 158.31 128.94 158.31 128.98 218.31 91.78 218.31 91.75" fill="#e3ffff"/><polygon points="218.31 91.78 158.31 128.98 158.31 129.01 218.31 91.81 218.31 91.78" fill="#e2ffff"/><polygon points="218.31 91.81 158.31 129.01 158.31 129.04 218.31 91.84 218.31 91.81" fill="#e1ffff"/><polygon points="218.31 91.84 158.31 129.04 158.31 129.08 218.31 91.88 218.31 91.84" fill="#e0ffff"/><polygon points="218.31 91.88 158.31 129.08 158.31 129.11 218.31 91.91 218.31 91.88" fill="#dfffff"/><polygon points="218.31 91.91 158.31 129.11 158.31 129.14 218.31 91.94 218.31 91.91" fill="#deffff"/><polygon points="218.31 91.94 158.31 129.14 158.31 129.18 218.31 91.97 218.31 91.94" fill="#dff"/><polygon points="218.31 91.97 158.31 129.18 158.31 129.21 218.31 92.01 218.31 91.97" fill="#dcffff"/><polygon points="218.31 92.01 158.31 129.21 158.31 129.24 218.31 92.04 218.31 92.01" fill="#dbffff"/><polygon points="218.31 92.04 158.31 129.24 158.31 129.27 218.31 92.07 218.31 92.04" fill="#daffff"/><polygon points="218.31 92.07 158.31 129.27 158.31 129.31 218.31 92.11 218.31 92.07" fill="#d9ffff"/><polygon points="218.31 92.11 158.31 129.31 158.31 129.34 218.31 92.14 218.31 92.11" fill="#d8ffff"/><polygon points="218.31 92.14 158.31 129.34 158.31 129.37 218.31 92.17 218.31 92.14" fill="#d7ffff"/><polygon points="218.31 92.17 158.31 129.37 158.31 129.41 218.31 92.2 218.31 92.17" fill="#d6ffff"/><polygon points="218.31 92.2 158.31 129.41 158.31 129.44 218.31 92.24 218.31 92.2" fill="#d5ffff"/><polygon points="218.31 92.24 158.31 129.44 158.31 129.47 218.31 92.27 218.31 92.24" fill="#d4ffff"/><path d="M218.31,126V92.27l-60,37.2v.7h62.55A4.36,4.36,0,0,1,218.31,126Z" fill="#d4ffff"/></g><polygon points="218.31 87.65 158.31 122.46 158.31 131.71 218.31 96.9 218.31 87.65" fill="#f65e34"/><g clip-path="url(#clip-path-3)"><polygon points="218.31 109.45 158.31 109.45 158.31 146.91 218.31 109.71 218.31 109.45" fill="#fff"/><polygon points="218.31 109.71 158.31 146.91 158.31 146.94 218.31 109.74 218.31 109.71" fill="#fff"/><polygon points="218.31 109.74 158.31 146.94 158.31 146.97 218.31 109.77 218.31 109.74" fill="#feffff"/><polygon points="218.31 109.77 158.31 146.97 158.31 147 218.31 109.8 218.31 109.77" fill="#fdffff"/><polygon points="218.31 109.8 158.31 147 158.31 147.04 218.31 109.84 218.31 109.8" fill="#fcffff"/><polygon points="218.31 109.84 158.31 147.04 158.31 147.07 218.31 109.87 218.31 109.84" fill="#fbffff"/><polygon points="218.31 109.87 158.31 147.07 158.31 147.1 218.31 109.9 218.31 109.87" fill="#faffff"/><polygon points="218.31 109.9 158.31 147.1 158.31 147.13 218.31 109.94 218.31 109.9" fill="#f9ffff"/><polygon points="218.31 109.94 158.31 147.13 158.31 147.17 218.31 109.97 218.31 109.94" fill="#f8ffff"/><polygon points="218.31 109.97 158.31 147.17 158.31 147.2 218.31 110 218.31 109.97" fill="#f7ffff"/><polygon points="218.31 110 158.31 147.2 158.31 147.23 218.31 110.03 218.31 110" fill="#f6ffff"/><polygon points="218.31 110.03 158.31 147.23 158.31 147.27 218.31 110.07 218.31 110.03" fill="#f5ffff"/><polygon points="218.31 110.07 158.31 147.27 158.31 147.3 218.31 110.1 218.31 110.07" fill="#f4ffff"/><polygon points="218.31 110.1 158.31 147.3 158.31 147.33 218.31 110.13 218.31 110.1" fill="#f3ffff"/><polygon points="218.31 110.13 158.31 147.33 158.31 147.37 218.31 110.17 218.31 110.13" fill="#f2ffff"/><polygon points="218.31 110.17 158.31 147.37 158.31 147.4 218.31 110.2 218.31 110.17" fill="#f1ffff"/><polygon points="218.31 110.2 158.31 147.4 158.31 147.43 218.31 110.23 218.31 110.2" fill="azure"/><polygon points="218.31 110.23 158.31 147.43 158.31 147.46 218.31 110.27 218.31 110.23" fill="#efffff"/><polygon points="218.31 110.27 158.31 147.46 158.31 147.5 218.31 110.3 218.31 110.27" fill="#eff"/><polygon points="218.31 110.3 158.31 147.5 158.31 147.53 218.31 110.33 218.31 110.3" fill="#edffff"/><polygon points="218.31 110.33 158.31 147.53 158.31 147.56 218.31 110.36 218.31 110.33" fill="#ecffff"/><polygon points="218.31 110.36 158.31 147.56 158.31 147.6 218.31 110.4 218.31 110.36" fill="#ebffff"/><polygon points="218.31 110.4 158.31 147.6 158.31 147.63 218.31 110.43 218.31 110.4" fill="#eaffff"/><polygon points="218.31 110.43 158.31 147.63 158.31 147.66 218.31 110.46 218.31 110.43" fill="#e8ffff"/><polygon points="218.31 110.46 158.31 147.66 158.31 147.69 218.31 110.5 218.31 110.46" fill="#e7ffff"/><polygon points="218.31 110.5 158.31 147.69 158.31 147.73 218.31 110.53 218.31 110.5" fill="#e6ffff"/><polygon points="218.31 110.53 158.31 147.73 158.31 147.76 218.31 110.56 218.31 110.53" fill="#e5ffff"/><polygon points="218.31 110.56 158.31 147.76 158.31 147.79 218.31 110.59 218.31 110.56" fill="#e4ffff"/><polygon points="218.31 110.59 158.31 147.79 158.31 147.83 218.31 110.63 218.31 110.59" fill="#e3ffff"/><polygon points="218.31 110.63 158.31 147.83 158.31 147.86 218.31 110.66 218.31 110.63" fill="#e2ffff"/><polygon points="218.31 110.66 158.31 147.86 158.31 147.89 218.31 110.69 218.31 110.66" fill="#e1ffff"/><polygon points="218.31 110.69 158.31 147.89 158.31 147.93 218.31 110.72 218.31 110.69" fill="#e0ffff"/><polygon points="218.31 110.72 158.31 147.93 158.31 147.96 218.31 110.76 218.31 110.72" fill="#dfffff"/><polygon points="218.31 110.76 158.31 147.96 158.31 147.99 218.31 110.79 218.31 110.76" fill="#deffff"/><polygon points="218.31 110.79 158.31 147.99 158.31 148.02 218.31 110.82 218.31 110.79" fill="#dff"/><polygon points="218.31 110.82 158.31 148.02 158.31 148.06 218.31 110.86 218.31 110.82" fill="#dcffff"/><polygon points="218.31 110.86 158.31 148.06 158.31 148.09 218.31 110.89 218.31 110.86" fill="#dbffff"/><polygon points="218.31 110.89 158.31 148.09 158.31 148.12 218.31 110.92 218.31 110.89" fill="#daffff"/><polygon points="218.31 110.92 158.31 148.12 158.31 148.16 218.31 110.96 218.31 110.92" fill="#d9ffff"/><polygon points="218.31 110.96 158.31 148.16 158.31 148.19 218.31 110.99 218.31 110.96" fill="#d8ffff"/><polygon points="218.31 110.99 158.31 148.19 158.31 148.22 218.31 111.02 218.31 110.99" fill="#d7ffff"/><polygon points="218.31 111.02 158.31 148.22 158.31 148.25 218.31 111.05 218.31 111.02" fill="#d6ffff"/><polygon points="218.31 111.05 158.31 148.25 158.31 148.29 218.31 111.09 218.31 111.05" fill="#d5ffff"/><polygon points="218.31 111.09 158.31 148.29 158.31 148.32 218.31 111.12 218.31 111.09" fill="#d4ffff"/><path d="M218.31,126V111.12l-60,37.2v.7h62.89V130.33A4.37,4.37,0,0,1,218.31,126Z" fill="#d4ffff"/></g><polygon points="218.31 106.5 158.31 141.31 158.31 150.56 218.31 115.75 218.31 106.5" fill="#f2f2f2"/><line x1="221.2" y1="70" x2="152.99" y2="109.58" fill="#ffc963"/><g clip-path="url(#clip-path-4)"><path d="M211.4,74.55V70H153v25.6c2.57-.23,5.33,1.3,5.33,4.62v7.24l27.9-17.3V76.84c0-6.22,9.64-6.21,9.64,0v7.34Z" fill="#ffc963"/><polygon points="186.21 90.17 158.31 107.46 158.31 107.5 186.21 90.2 186.21 90.17" fill="#ffc963"/><polygon points="211.4 74.55 195.86 84.19 195.86 84.22 211.4 74.58 211.4 74.55" fill="#ffc963"/><polygon points="186.21 90.2 158.31 107.5 158.31 107.53 186.21 90.23 186.21 90.2" fill="#ffc963"/><polygon points="211.4 74.58 195.86 84.22 195.86 84.25 211.4 74.61 211.4 74.58" fill="#ffc963"/><polygon points="211.4 74.61 195.86 84.25 195.86 84.28 211.4 74.65 211.4 74.61" fill="#ffc963"/><polygon points="186.21 90.23 158.31 107.53 158.31 107.56 186.21 90.26 186.21 90.23" fill="#ffc963"/><polygon points="186.21 90.26 158.31 107.56 158.31 107.59 186.21 90.3 186.21 90.26" fill="#ffc963"/><polygon points="211.4 74.65 195.86 84.28 195.86 84.32 211.4 74.68 211.4 74.65" fill="#ffc963"/><polygon points="186.21 90.3 158.31 107.59 158.31 107.63 186.21 90.33 186.21 90.3" fill="#ffc963"/><polygon points="211.4 74.68 195.86 84.32 195.86 84.35 211.4 74.71 211.4 74.68" fill="#ffc963"/><polygon points="186.21 90.33 158.31 107.63 158.31 107.66 186.21 90.36 186.21 90.33" fill="#ffc963"/><polygon points="211.4 74.71 195.86 84.35 195.86 84.38 211.4 74.75 211.4 74.71" fill="#ffc963"/><polygon points="186.21 90.36 158.31 107.66 158.31 107.69 186.21 90.39 186.21 90.36" fill="#ffc963"/><polygon points="211.4 74.75 195.86 84.38 195.86 84.42 211.4 74.78 211.4 74.75" fill="#ffc963"/><polygon points="186.21 90.39 158.31 107.69 158.31 107.73 186.21 90.43 186.21 90.39" fill="#ffc963"/><polygon points="211.4 74.78 195.86 84.42 195.86 84.45 211.4 74.81 211.4 74.78" fill="#ffc963"/><polygon points="211.4 74.81 195.86 84.45 195.86 84.48 211.4 74.84 211.4 74.81" fill="#ffc963"/><polygon points="186.21 90.43 158.31 107.73 158.31 107.76 186.21 90.46 186.21 90.43" fill="#ffc963"/><polygon points="211.4 74.84 195.86 84.48 195.86 84.51 211.4 74.88 211.4 74.84" fill="#ffc963"/><polygon points="186.21 90.46 158.31 107.76 158.31 107.79 186.21 90.49 186.21 90.46" fill="#ffc963"/><polygon points="186.21 90.49 158.31 107.79 158.31 107.82 186.21 90.53 186.21 90.49" fill="#ffc963"/><polygon points="211.4 74.88 195.86 84.51 195.86 84.55 211.4 74.91 211.4 74.88" fill="#ffc963"/><polygon points="186.21 90.53 158.31 107.82 158.31 107.86 186.21 90.56 186.21 90.53" fill="#ffc963"/><polygon points="211.4 74.91 195.86 84.55 195.86 84.58 211.4 74.94 211.4 74.91" fill="#ffc963"/><polygon points="186.21 90.56 158.31 107.86 158.31 107.89 186.21 90.59 186.21 90.56" fill="#ffc963"/><polygon points="211.4 74.94 195.86 84.58 195.86 84.61 211.4 74.98 211.4 74.94" fill="#ffc963"/><polygon points="186.21 90.59 158.31 107.89 158.31 107.92 186.21 90.63 186.21 90.59" fill="#ffc963"/><polygon points="211.4 74.98 195.86 84.61 195.86 84.65 211.4 75.01 211.4 74.98" fill="#ffc963"/><polygon points="186.21 90.63 158.31 107.92 158.31 107.96 186.21 90.66 186.21 90.63" fill="#ffc963"/><polygon points="211.4 75.01 195.86 84.65 195.86 84.68 211.4 75.04 211.4 75.01" fill="#ffc963"/><polygon points="186.21 90.66 158.31 107.96 158.31 107.99 186.21 90.69 186.21 90.66" fill="#ffc963"/><polygon points="211.4 75.04 195.86 84.68 195.86 84.71 211.4 75.08 211.4 75.04" fill="#ffc963"/><polygon points="186.21 90.69 158.31 107.99 158.31 108.02 186.21 90.72 186.21 90.69" fill="#ffc963"/><polygon points="211.4 75.08 195.86 84.71 195.86 84.75 211.4 75.11 211.4 75.08" fill="#ffc963"/><polygon points="186.21 90.72 158.31 108.02 158.31 108.06 186.21 90.76 186.21 90.72" fill="#ffc963"/><polygon points="211.4 75.11 195.86 84.75 195.86 84.78 211.4 75.14 211.4 75.11" fill="#ffc963"/><polygon points="186.21 90.76 158.31 108.06 158.31 108.09 186.21 90.79 186.21 90.76" fill="#ffc963"/><polygon points="211.4 75.14 195.86 84.78 195.86 84.81 211.4 75.17 211.4 75.14" fill="#ffc963"/><polygon points="186.21 90.79 158.31 108.09 158.31 108.12 186.21 90.82 186.21 90.79" fill="#ffc963"/><polygon points="211.4 75.17 195.86 84.81 195.86 84.84 211.4 75.21 211.4 75.17" fill="#ffc963"/><polygon points="186.21 90.82 158.31 108.12 158.31 108.15 186.21 90.86 186.21 90.82" fill="#ffc963"/><polygon points="211.4 75.21 195.86 84.84 195.86 84.88 211.4 75.24 211.4 75.21" fill="#ffc963"/><polygon points="186.21 90.86 158.31 108.15 158.31 108.19 186.21 90.89 186.21 90.86" fill="#ffc963"/><polygon points="211.4 75.24 195.86 84.88 195.86 84.91 211.4 75.27 211.4 75.24" fill="#ffc963"/><polygon points="186.21 90.89 158.31 108.19 158.31 108.22 186.21 90.92 186.21 90.89" fill="#ffc963"/><polygon points="211.4 75.27 195.86 84.91 195.86 84.94 211.4 75.31 211.4 75.27" fill="#ffc963"/><polygon points="211.4 75.31 195.86 84.94 195.86 84.97 211.4 75.34 211.4 75.31" fill="#ffc963"/><polygon points="186.21 90.92 158.31 108.22 158.31 108.25 186.21 90.95 186.21 90.92" fill="#ffc963"/><polygon points="186.21 90.95 158.31 108.25 158.31 108.28 186.21 90.99 186.21 90.95" fill="#ffc963"/><polygon points="211.4 75.34 195.86 84.97 195.86 85.01 211.4 75.37 211.4 75.34" fill="#ffc963"/><polygon points="211.4 75.37 195.86 85.01 195.86 85.04 211.4 75.4 211.4 75.37" fill="#ffc963"/><polygon points="186.21 90.99 158.31 108.28 158.31 108.32 186.21 91.02 186.21 90.99" fill="#ffc963"/><polygon points="186.21 91.02 158.31 108.32 158.31 108.35 186.21 91.05 186.21 91.02" fill="#ffc963"/><polygon points="211.4 75.4 195.86 85.04 195.86 85.07 211.4 75.44 211.4 75.4" fill="#ffc963"/><polygon points="186.21 91.05 158.31 108.35 158.31 108.38 186.21 91.09 186.21 91.05" fill="#ffc963"/><polygon points="211.4 75.44 195.86 85.07 195.86 85.11 211.4 75.47 211.4 75.44" fill="#ffc963"/><polygon points="186.21 91.09 158.31 108.38 158.31 108.42 186.21 91.12 186.21 91.09" fill="#ffc963"/><polygon points="211.4 75.47 195.86 85.11 195.86 85.14 211.4 75.5 211.4 75.47" fill="#ffc963"/><polygon points="186.21 91.12 158.31 108.42 158.31 108.45 186.21 91.15 186.21 91.12" fill="#ffc963"/><polygon points="211.4 75.5 195.86 85.14 195.86 85.17 211.4 75.54 211.4 75.5" fill="#ffc963"/><polygon points="186.21 91.15 158.31 108.45 158.31 108.48 186.21 91.19 186.21 91.15" fill="#ffc963"/><polygon points="211.4 75.54 195.86 85.17 195.86 85.2 211.4 75.57 211.4 75.54" fill="#ffc963"/><polygon points="186.21 91.19 158.31 108.48 158.31 108.52 186.21 91.22 186.21 91.19" fill="#ffc963"/><polygon points="211.4 75.57 195.86 85.2 195.86 85.24 211.4 75.6 211.4 75.57" fill="#ffc963"/><polygon points="186.21 91.22 158.31 108.52 158.31 108.55 186.21 91.25 186.21 91.22" fill="#ffc963"/><polygon points="211.4 75.6 195.86 85.24 195.86 85.27 211.4 75.64 211.4 75.6" fill="#ffc963"/><polygon points="186.21 91.25 158.31 108.55 158.31 108.58 186.21 91.28 186.21 91.25" fill="#ffc963"/><polygon points="211.4 75.64 195.86 85.27 195.86 85.3 211.4 75.67 211.4 75.64" fill="#ffc963"/><polygon points="186.21 91.28 158.31 108.58 158.31 108.61 186.21 91.32 186.21 91.28" fill="#ffc963"/><polygon points="211.4 75.67 195.86 85.3 195.86 85.34 211.4 75.7 211.4 75.67" fill="#ffc963"/><polygon points="186.21 91.32 158.31 108.61 158.31 108.65 186.21 91.35 186.21 91.32" fill="#ffc963"/><polygon points="211.4 75.7 195.86 85.34 195.86 85.37 211.4 75.73 211.4 75.7" fill="#ffc963"/><polygon points="186.21 91.35 158.31 108.65 158.31 108.68 186.21 91.38 186.21 91.35" fill="#ffc963"/><polygon points="211.4 75.73 195.86 85.37 195.86 85.4 211.4 75.77 211.4 75.73" fill="#ffc963"/><polygon points="186.21 91.38 158.31 108.68 158.31 108.71 186.21 91.42 186.21 91.38" fill="#ffc963"/><polygon points="211.4 75.77 195.86 85.4 195.86 85.44 211.4 75.8 211.4 75.77" fill="#ffc963"/><polygon points="186.21 91.42 158.31 108.71 158.31 108.75 186.21 91.45 186.21 91.42" fill="#ffc963"/><polygon points="211.4 75.8 195.86 85.44 195.86 85.47 211.4 75.83 211.4 75.8" fill="#ffc963"/><polygon points="211.4 75.83 195.86 85.47 195.86 85.5 211.4 75.86 211.4 75.83" fill="#ffc963"/><polygon points="186.21 91.45 158.31 108.75 158.31 108.78 186.21 91.48 186.21 91.45" fill="#ffc963"/><polygon points="186.21 91.48 158.31 108.78 158.31 108.81 186.21 91.51 186.21 91.48" fill="#ffc963"/><polygon points="211.4 75.86 195.86 85.5 195.86 85.53 211.4 75.9 211.4 75.86" fill="#ffc963"/><polygon points="186.21 91.51 158.31 108.81 158.31 108.84 186.21 91.55 186.21 91.51" fill="#ffc963"/><polygon points="211.4 75.9 195.86 85.53 195.86 85.57 211.4 75.93 211.4 75.9" fill="#ffc963"/><polygon points="186.21 91.55 158.31 108.84 158.31 108.88 186.21 91.58 186.21 91.55" fill="#ffc963"/><polygon points="211.4 75.93 195.86 85.57 195.86 85.6 211.4 75.96 211.4 75.93" fill="#ffc963"/><path d="M211.4,91.7V76L195.86,85.6V99.76c0,6.22-9.64,6.21-9.64,0V91.58l-27.9,17.3v.7h60V95.93C215.46,97.13,211.4,95.74,211.4,91.7Z" fill="#ffc963"/></g><polygon points="211.4 71.07 195.86 80.08 195.86 89.33 211.4 80.31 211.4 71.07" fill="#f65e34"/><polygon points="186.21 85.68 158.31 101.86 158.31 111.11 186.21 94.93 186.21 85.68" fill="#f65e34"/><line x1="221.2" y1="90.6" x2="152.99" y2="130.17" fill="#ff666d"/><g clip-path="url(#clip-path-5)"><path d="M197.21,90.6H153v5c2.57-.23,5.33,1.3,5.33,4.62v27.83l13-8.09V107.83c0-4.38,4.78-5.65,7.61-3.86l.12-.15c.1-.5.21-1,.33-1.49.81-3.35,3.79-4,6.2-3,.26-.54.53-1.07.82-1.59a4.63,4.63,0,0,1,2.1-2c.07-.16.13-.32.2-.48,1.34-2.76,4-2.92,6.05-1.76A4.26,4.26,0,0,1,197.21,90.6Z" fill="#ff666d"/><path d="M201.63,90.6a4.36,4.36,0,0,1,2.61,4.17v4.81l14.07-8.72V90.6Z" fill="#ff666d"/><polygon points="171.35 119.97 158.31 128.06 158.31 128.09 171.35 120 171.35 119.97" fill="#ff666d"/><polygon points="204.25 99.58 204.25 99.61 218.31 90.89 218.31 90.86 204.25 99.58" fill="#ff666d"/><polygon points="171.35 120 158.31 128.09 158.31 128.12 171.35 120.04 171.35 120" fill="#ff666d"/><polygon points="204.25 99.61 204.25 99.64 218.31 90.92 218.31 90.89 204.25 99.61" fill="#ff666d"/><polygon points="171.35 120.04 158.31 128.12 158.31 128.16 171.35 120.07 171.35 120.04" fill="#ff666d"/><polygon points="204.25 99.64 204.25 99.68 218.31 90.95 218.31 90.92 204.25 99.64" fill="#ff666d"/><polygon points="171.35 120.07 158.31 128.16 158.31 128.19 171.35 120.1 171.35 120.07" fill="#ff666d"/><polygon points="204.25 99.68 204.25 99.71 218.31 90.99 218.31 90.95 204.25 99.68" fill="#ff666d"/><polygon points="171.35 120.1 158.31 128.19 158.31 128.22 171.35 120.14 171.35 120.1" fill="#ff666d"/><polygon points="204.25 99.71 204.25 99.74 218.31 91.02 218.31 90.99 204.25 99.71" fill="#ff666d"/><polygon points="171.35 120.14 158.31 128.22 158.31 128.25 171.35 120.17 171.35 120.14" fill="#ff666d"/><polygon points="204.25 99.74 204.25 99.78 218.31 91.05 218.31 91.02 204.25 99.74" fill="#ff666d"/><polygon points="171.35 120.17 158.31 128.25 158.31 128.29 171.35 120.2 171.35 120.17" fill="#ff666d"/><polygon points="204.25 99.78 204.25 99.81 218.31 91.09 218.31 91.05 204.25 99.78" fill="#ff666d"/><polygon points="204.25 99.81 204.25 99.84 218.31 91.12 218.31 91.09 204.25 99.81" fill="#ff666d"/><polygon points="171.35 120.2 158.31 128.29 158.31 128.32 171.35 120.23 171.35 120.2" fill="#ff666d"/><polygon points="171.35 120.23 158.31 128.32 158.31 128.35 171.35 120.27 171.35 120.23" fill="#ff666d"/><polygon points="204.25 99.84 204.25 99.87 218.31 91.15 218.31 91.12 204.25 99.84" fill="#ff666d"/><polygon points="204.25 99.87 204.25 99.91 218.31 91.19 218.31 91.15 204.25 99.87" fill="#ff666d"/><polygon points="171.35 120.27 158.31 128.35 158.31 128.38 171.35 120.3 171.35 120.27" fill="#ff666d"/><polygon points="171.35 120.3 158.31 128.38 158.31 128.42 171.35 120.33 171.35 120.3" fill="#ff666d"/><polygon points="204.25 99.91 204.25 99.94 218.31 91.22 218.31 91.19 204.25 99.91" fill="#ff666d"/><polygon points="171.35 120.33 158.31 128.42 158.31 128.45 171.35 120.36 171.35 120.33" fill="#ff666d"/><polygon points="204.25 99.94 204.25 99.97 218.31 91.25 218.31 91.22 204.25 99.94" fill="#ff666d"/><polygon points="171.35 120.36 158.31 128.45 158.31 128.48 171.35 120.4 171.35 120.36" fill="#ff666d"/><polygon points="204.25 99.97 204.25 100.01 218.31 91.28 218.31 91.25 204.25 99.97" fill="#ff666d"/><polygon points="171.35 120.4 158.31 128.48 158.31 128.52 171.35 120.43 171.35 120.4" fill="#ff666d"/><polygon points="204.25 100.01 204.25 100.04 218.31 91.32 218.31 91.28 204.25 100.01" fill="#ff666d"/><polygon points="171.35 120.43 158.31 128.52 158.31 128.55 171.35 120.46 171.35 120.43" fill="#ff666d"/><polygon points="204.25 100.04 204.25 100.07 218.31 91.35 218.31 91.32 204.25 100.04" fill="#ff666d"/><polygon points="204.25 100.07 204.25 100.11 218.31 91.38 218.31 91.35 204.25 100.07" fill="#ff666d"/><polygon points="171.35 120.46 158.31 128.55 158.31 128.58 171.35 120.5 171.35 120.46" fill="#ff666d"/><polygon points="171.35 120.5 158.31 128.58 158.31 128.62 171.35 120.53 171.35 120.5" fill="#ff666d"/><polygon points="204.25 100.11 204.25 100.14 218.31 91.42 218.31 91.38 204.25 100.11" fill="#ff666d"/><polygon points="171.35 120.53 158.31 128.62 158.31 128.65 171.35 120.56 171.35 120.53" fill="#ff666d"/><polygon points="204.25 100.14 204.25 100.17 218.31 91.45 218.31 91.42 204.25 100.14" fill="#ff666d"/><polygon points="171.35 120.56 158.31 128.65 158.31 128.68 171.35 120.59 171.35 120.56" fill="#ff666d"/><polygon points="204.25 100.17 204.25 100.2 218.31 91.48 218.31 91.45 204.25 100.17" fill="#ff666d"/><polygon points="204.25 100.2 204.25 100.24 218.31 91.51 218.31 91.48 204.25 100.2" fill="#ff666d"/><polygon points="171.35 120.59 158.31 128.68 158.31 128.71 171.35 120.63 171.35 120.59" fill="#ff666d"/><polygon points="171.35 120.63 158.31 128.71 158.31 128.75 171.35 120.66 171.35 120.63" fill="#ff666d"/><polygon points="204.25 100.24 204.25 100.27 218.31 91.55 218.31 91.51 204.25 100.24" fill="#ff666d"/><polygon points="171.35 120.66 158.31 128.75 158.31 128.78 171.35 120.69 171.35 120.66" fill="#ff666d"/><polygon points="204.25 100.27 204.25 100.3 218.31 91.58 218.31 91.55 204.25 100.27" fill="#ff666d"/><polygon points="204.25 100.3 204.25 100.33 218.31 91.61 218.31 91.58 204.25 100.3" fill="#ff666d"/><polygon points="171.35 120.69 158.31 128.78 158.31 128.81 171.35 120.73 171.35 120.69" fill="#ff666d"/><polygon points="171.35 120.73 158.31 128.81 158.31 128.85 171.35 120.76 171.35 120.73" fill="#ff666d"/><polygon points="204.25 100.33 204.25 100.37 218.31 91.65 218.31 91.61 204.25 100.33" fill="#ff666d"/><polygon points="171.35 120.76 158.31 128.85 158.31 128.88 171.35 120.79 171.35 120.76" fill="#ff666d"/><polygon points="204.25 100.37 204.25 100.4 218.31 91.68 218.31 91.65 204.25 100.37" fill="#ff666d"/><polygon points="171.35 120.79 158.31 128.88 158.31 128.91 171.35 120.83 171.35 120.79" fill="#ff666d"/><polygon points="204.25 100.4 204.25 100.43 218.31 91.71 218.31 91.68 204.25 100.4" fill="#ff666d"/><polygon points="171.35 120.83 158.31 128.91 158.31 128.94 171.35 120.86 171.35 120.83" fill="#ff666d"/><polygon points="204.25 100.43 204.25 100.47 218.31 91.75 218.31 91.71 204.25 100.43" fill="#ff666d"/><polygon points="171.35 120.86 158.31 128.94 158.31 128.98 171.35 120.89 171.35 120.86" fill="#ff666d"/><polygon points="204.25 100.47 204.25 100.5 218.31 91.78 218.31 91.75 204.25 100.47" fill="#ff666d"/><polygon points="171.35 120.89 158.31 128.98 158.31 129.01 171.35 120.92 171.35 120.89" fill="#ff666d"/><polygon points="204.25 100.5 204.25 100.53 218.31 91.81 218.31 91.78 204.25 100.5" fill="#ff666d"/><polygon points="171.35 120.92 158.31 129.01 158.31 129.04 171.35 120.96 171.35 120.92" fill="#ff666d"/><polygon points="204.25 100.53 204.25 100.56 218.31 91.84 218.31 91.81 204.25 100.53" fill="#ff666d"/><polygon points="204.25 100.56 204.25 100.6 218.31 91.88 218.31 91.84 204.25 100.56" fill="#ff666d"/><polygon points="171.35 120.96 158.31 129.04 158.31 129.08 171.35 120.99 171.35 120.96" fill="#ff666d"/><polygon points="171.35 120.99 158.31 129.08 158.31 129.11 171.35 121.02 171.35 120.99" fill="#ff666d"/><polygon points="204.25 100.6 204.25 100.63 218.31 91.91 218.31 91.88 204.25 100.6" fill="#ff666d"/><polygon points="171.35 121.02 158.31 129.11 158.31 129.14 171.35 121.06 171.35 121.02" fill="#ff666d"/><polygon points="204.25 100.63 204.25 100.66 218.31 91.94 218.31 91.91 204.25 100.63" fill="#ff666d"/><polygon points="204.25 100.66 204.25 100.7 218.31 91.97 218.31 91.94 204.25 100.66" fill="#ff666d"/><polygon points="171.35 121.06 158.31 129.14 158.31 129.18 171.35 121.09 171.35 121.06" fill="#ff666d"/><polygon points="171.35 121.09 158.31 129.18 158.31 129.21 171.35 121.12 171.35 121.09" fill="#ff666d"/><polygon points="204.25 100.7 204.25 100.73 218.31 92.01 218.31 91.97 204.25 100.7" fill="#ff666d"/><polygon points="204.25 100.73 204.25 100.76 218.31 92.04 218.31 92.01 204.25 100.73" fill="#ff666d"/><polygon points="171.35 121.12 158.31 129.21 158.31 129.24 171.35 121.16 171.35 121.12" fill="#ff666d"/><polygon points="204.25 100.76 204.25 100.8 218.31 92.07 218.31 92.04 204.25 100.76" fill="#ff666d"/><polygon points="171.35 121.16 158.31 129.24 158.31 129.27 171.35 121.19 171.35 121.16" fill="#ff666d"/><polygon points="204.25 100.8 204.25 100.83 218.31 92.11 218.31 92.07 204.25 100.8" fill="#ff666d"/><polygon points="171.35 121.19 158.31 129.27 158.31 129.31 171.35 121.22 171.35 121.19" fill="#ff666d"/><polygon points="204.25 100.83 204.25 100.86 218.31 92.14 218.31 92.11 204.25 100.83" fill="#ff666d"/><polygon points="171.35 121.22 158.31 129.31 158.31 129.34 171.35 121.25 171.35 121.22" fill="#ff666d"/><polygon points="171.35 121.25 158.31 129.34 158.31 129.37 171.35 121.29 171.35 121.25" fill="#ff666d"/><polygon points="204.25 100.86 204.25 100.89 218.31 92.17 218.31 92.14 204.25 100.86" fill="#ff666d"/><polygon points="171.35 121.29 158.31 129.37 158.31 129.41 171.35 121.32 171.35 121.29" fill="#ff666d"/><polygon points="204.25 100.89 204.25 100.93 218.31 92.2 218.31 92.17 204.25 100.89" fill="#ff666d"/><polygon points="171.35 121.32 158.31 129.41 158.31 129.44 171.35 121.35 171.35 121.32" fill="#ff666d"/><polygon points="204.25 100.93 204.25 100.96 218.31 92.24 218.31 92.2 204.25 100.93" fill="#ff666d"/><polygon points="171.35 121.35 158.31 129.44 158.31 129.47 171.35 121.39 171.35 121.35" fill="#ff666d"/><polygon points="204.25 100.96 204.25 100.99 218.31 92.27 218.31 92.24 204.25 100.96" fill="#ff666d"/><path d="M218.31,126V92.27L204.25,101v18.56c0,6.22-9.64,6.21-9.64,0v-7.12a5.36,5.36,0,0,1-5.41,2.66c-.25.44-.5.89-.78,1.32a4.67,4.67,0,0,1-1.53,1.44c0,.31-.07.63-.11.94V119h0c-.05.43-.1.86-.16,1.28-.39,2.92-3.15,3.85-5.59,3.29v5.61a5.34,5.34,0,0,1-.1,1h40A4.36,4.36,0,0,1,218.31,126Z" fill="#ff666d"/><path d="M171.36,129.15v-7.77l-13,8.09v.7h13.14A5.32,5.32,0,0,1,171.36,129.15Z" fill="#ff666d"/></g><polygon points="171.35 114.89 158.31 122.46 158.31 131.71 171.35 124.14 171.35 114.89" fill="#ff666d"/><polygon points="204.25 95.81 204.25 105.06 218.31 96.9 218.31 87.65 204.25 95.81" fill="#ff666d"/><path d="M97.64,135V176a3.24,3.24,0,0,1-2.23,3.08h0A3.24,3.24,0,0,1,91.16,176V135a3.24,3.24,0,0,1,2.1-3h0A3.24,3.24,0,0,1,97.64,135Z" stroke="#f2f2f2" stroke-miterlimit="10" stroke-width="0.5" fill="url(#linear-gradient-8)"/><path d="M158.31,150.56s2-12.1,8.08-12.1,8,7.29,13.8,1.67,8.52-19.65,15.51-16.14,13.15,3.16,16.07-1.49,6.54-16,6.54-16" fill="none" stroke="#39b54a" stroke-miterlimit="10" stroke-width="0.5"/></g></g></svg>